<svg xmlns="http://www.w3.org/2000/svg" width="100" height="100" viewBox="0 0 100 100" fill="none"><defs><pattern id="g" width="100" height="100" patternUnits="userSpaceOnUse"><g stroke="#D4AF37" stroke-width=".45" stroke-linecap="round" stroke-linejoin="round" opacity=".95" fill="none"><path d="M50 8 78 22 92 50 78 78 50 92 22 78 8 50 22 22Z"/><path d="M50 8v42H8M50 8v42h42M50 92V50H8M50 92V50h42"/><path d="M22 22q28 28 0 56M78 22q-28 28 0 56M22 78q28-28 0-56M78 78q-28-28 0-56"/><path d="M50 32l4 14h14l-11 8 4 14-11-8-11 8 4-14-11-8h14z" stroke-width=".35"/></g></pattern></defs><rect width="100" height="100" fill="url(#g)"/></svg>
