<svg xmlns="http://www.w3.org/2000/svg" width="120" height="120" viewBox="0 0 120 120" fill="none">
  <g fill="none" stroke="#D4AF37" stroke-width="0.38" stroke-linecap="round" stroke-linejoin="round">
    <!-- Central girih-style octagram + rings -->
    <g transform="translate(60,60)">
      <path d="M0,-52 L12,-20 L46,-16 L20,6 L28,40 L0,22 L-28,40 L-20,6 L-46,-16 L-12,-20 Z"/>
      <path d="M0,52 L-12,20 L-46,16 L-20,-6 L-28,-40 L0,-22 L28,-40 L20,-6 L46,16 L12,20 Z"/>
      <circle r="8"/>
      <circle r="18"/>
      <circle r="28"/>
      <path d="M-60,-60 L60,60 M60,-60 L-60,60"/>
      <path d="M0,-60 Q18,-18 60,0 Q18,18 0,60 Q-18,18 -60,0 Q-18,-18 0,-60"/>
      <path d="M-60,0 Q-18,-18 0,-60 Q18,-18 60,0 Q18,18 0,60 Q-18,18 -60,0"/>
    </g>
    <!-- Tile seams: subtle arabesque arcs at edges for seamless repeat -->
    <path d="M0,60 Q30,30 60,0 Q90,30 120,60 Q90,90 60,120 Q30,90 0,60"/>
    <path d="M60,0 Q90,30 120,60 Q90,90 60,120 Q30,90 0,60 Q30,30 60,0"/>
  </g>
</svg>
